<svg width="293" height="293" viewBox="0 0 293 293" fill="none" xmlns="http://www.w3.org/2000/svg">
<circle cx="146.5" cy="146.5" r="146.5" fill="white"/>
<path d="M207.656 160.143C200.094 160.143 193.964 166.265 193.964 173.815C193.964 181.366 200.094 187.489 207.656 187.489C215.219 187.489 221.349 181.366 221.349 173.815C221.348 166.265 215.219 160.143 207.656 160.143ZM89.4727 160.143C81.9101 160.143 75.7805 166.265 75.7803 173.815C75.7803 181.366 81.91 187.489 89.4727 187.489C97.0353 187.489 103.165 181.366 103.165 173.815C103.165 166.265 97.0352 160.143 89.4727 160.143ZM41.2188 105.511C37.2191 105.511 33.9778 108.749 33.9775 112.741V176.666H69.1035V173.043C69.1035 162.804 77.4148 154.504 87.666 154.504H91.2793C101.531 154.504 109.842 162.804 109.842 173.043V176.666H187.287V173.043C187.287 162.804 195.598 154.504 205.85 154.504H209.462C219.713 154.504 228.025 162.804 228.025 173.043V176.666H252.556C256.128 176.666 259.022 173.774 259.022 170.208V149.077C259.022 146.007 256.876 143.435 253.998 142.78L254.081 142.42L253.619 142.46L250.263 128.494L250.249 128.437V128.118L247.939 118.268L247.796 117.653H250.249V105.511H41.2188ZM241.749 116.88C243.172 116.88 244.411 117.855 244.744 119.237L249.341 138.307C249.807 140.243 248.338 142.104 246.346 142.104H234.234C232.534 142.104 231.154 140.726 231.154 139.026V119.957C231.154 118.257 232.534 116.88 234.234 116.88H241.749ZM222.364 116.88C224.065 116.88 225.444 118.257 225.444 119.957V139.026C225.444 140.726 224.065 142.104 222.364 142.104H186.238C184.538 142.103 183.158 140.726 183.158 139.026V119.957C183.158 118.257 184.538 116.88 186.238 116.88H222.364ZM174.368 116.88C176.069 116.88 177.449 118.257 177.449 119.957V139.026C177.449 140.726 176.069 142.104 174.368 142.104H138.242C136.542 142.103 135.162 140.726 135.162 139.026V119.957C135.162 118.257 136.542 116.88 138.242 116.88H174.368ZM126.373 116.88C128.073 116.88 129.453 118.257 129.453 119.957V139.026C129.453 140.726 128.074 142.103 126.373 142.104H90.2471C88.5464 142.104 87.166 140.726 87.166 139.026V119.957C87.1661 118.257 88.5465 116.88 90.2471 116.88H126.373ZM79.4092 116.88C81.1097 116.88 82.4892 118.257 82.4893 119.957V139.026C82.4893 140.726 81.1097 142.103 79.4092 142.104H43.2832C41.5826 142.104 40.2031 140.726 40.2031 139.026V119.957C40.2032 118.257 41.5826 116.88 43.2832 116.88H79.4092Z" fill="#22C55E" stroke="#22C55E"/>
</svg>
