<svg width="64" height="74" viewBox="0 0 64 74" fill="none" xmlns="http://www.w3.org/2000/svg">
<path d="M63.0987 24.1854C59.3127 7.50829 44.782 0 32.018 0C32.018 0 32.018 0 31.982 0C19.2541 0 4.68726 7.47219 0.901332 24.1493C-3.31727 42.7756 8.07656 58.5502 18.3887 68.4771C22.2107 72.159 27.1144 74 32.018 74C36.9217 74 41.8254 72.159 45.6113 68.4771C55.9234 58.5502 67.3173 42.8117 63.0987 24.1854ZM32.018 42.2702C25.7442 42.2702 20.6603 37.1805 20.6603 30.8995C20.6603 24.6185 25.7442 19.5288 32.018 19.5288C38.2918 19.5288 43.3758 24.6185 43.3758 30.8995C43.3758 37.1805 38.2918 42.2702 32.018 42.2702Z" fill="#22C55E"/>
</svg>
